<svg width="420" height="155" viewBox="0 0 420 155" fill="none" xmlns="http://www.w3.org/2000/svg">
<path d="M65.3834 151.809L55.7598 144.123H35.5957C32.9413 144.129 30.3529 143.308 28.1997 141.776C26.0466 140.245 24.4388 138.081 23.6058 135.595L16.1699 112.507L5.19502 103.748C3.04493 102.226 1.44203 100.067 0.618616 97.5859C-0.204798 95.1046 -0.205939 92.429 0.615359 89.947L4.75815 77.0819L0.615359 64.2194C-0.206133 61.7372 -0.205093 59.0615 0.618328 56.58C1.44175 54.0984 3.04476 51.9401 5.19502 50.4178L16.1699 41.654L23.6058 18.5716C24.4388 16.0848 26.0465 13.9212 28.1996 12.3894C30.3527 10.8575 32.9412 10.0358 35.5957 10.0413H55.7589L65.3834 2.35754C67.542 0.824707 70.1344 0 72.794 0C75.4536 0 78.0459 0.824707 80.2046 2.35754L89.8281 10.0421H109.992C112.647 10.0367 115.235 10.8585 117.388 12.3904C119.541 13.9222 121.149 16.0857 121.982 18.5724L129.416 41.6548L140.391 50.4186C142.542 51.9408 144.145 54.0991 144.968 56.5806C145.792 59.0622 145.793 61.738 144.972 64.2202L140.828 77.0852L144.972 89.9502C145.793 92.4324 145.792 95.108 144.968 97.5894C144.145 100.071 142.541 102.229 140.391 103.751L129.417 112.507L121.983 135.591C121.15 138.077 119.542 140.24 117.389 141.772C115.236 143.303 112.647 144.125 109.993 144.119H89.8281L80.2046 151.805C78.0459 153.338 75.4536 154.162 72.794 154.162C70.1344 154.162 67.542 153.338 65.3834 151.805V151.809ZM72.6989 124.137H72.8899C73.8774 124.103 74.8699 124.107 75.8608 124.112C78.2341 124.21 80.6109 124.045 82.947 123.621C87.0267 122.728 89.3248 120.417 90.0026 116.41V112.13L79.2777 111.004H66.3111L55.5845 112.408V116.409C56.2614 120.413 58.5612 122.724 62.6442 123.62C64.98 124.044 67.3566 124.209 69.7296 124.111C70.0724 124.111 70.4151 124.111 70.7579 124.111C71.404 124.109 72.0519 124.115 72.6989 124.137ZM96.897 55.2893L96.3604 61.1801C96.3597 61.3332 96.3107 61.4823 96.2202 61.6067C96.1297 61.731 96.0022 61.8245 95.8555 61.8742L82.2842 66.1213C82.0737 66.1865 81.8898 66.3162 81.7589 66.4915C81.6281 66.6669 81.5573 66.8787 81.5567 67.0964V67.4242C81.5567 75.3931 81.5716 83.3612 81.5285 91.3285C81.4909 92.0177 81.2682 92.6845 80.8831 93.2607C79.6331 94.9512 77.8732 97.1374 75.9563 97.6807C75.2255 97.8769 74.4712 97.975 73.7138 97.9724L74.0826 108.042L92.6562 109.861C94.5415 109.456 95.3289 107.983 96.0614 106.269L94.6661 91.7653L100.503 91.1704C106.723 84.0414 110.233 75.9684 109.627 66.4384C109.378 62.5248 108.215 58.7809 107.286 54.9984C106.419 51.4839 105.459 47.9906 104.506 44.4974C102.537 37.2914 98.2126 33.8227 90.5582 33.5171C85.8149 33.3245 81.0609 33.3909 76.3126 33.2909H72.796H69.2795C64.5312 33.3909 59.778 33.3245 55.0347 33.5171C47.3804 33.826 43.0548 37.2947 41.0864 44.4974C40.1321 47.9906 39.1762 51.4839 38.3066 54.9984C37.3722 58.7784 36.2094 62.5224 35.9603 66.4359C35.354 75.9659 38.8672 84.0405 45.0839 91.1679L50.921 91.7628L49.5257 106.267C50.259 107.979 51.0456 109.453 52.9309 109.858L71.8451 108.006H72.0369L72.5718 97.9438C72.1922 97.9233 71.811 97.8946 71.4323 97.8659C69.9547 97.7561 68.5029 96.0222 67.3244 94.8398C64.493 92.1586 64.4764 88.1524 67.5129 85.7621C69.0202 84.479 70.9271 83.7433 72.9168 83.6773C74.9065 83.6113 76.8592 84.2188 78.4504 85.3991C78.569 85.4572 78.6917 85.5068 78.8175 85.5475C78.8175 85.1009 78.8175 84.728 78.8175 84.3511C78.8353 75.7864 78.8532 67.2215 78.8715 58.6563C78.8715 57.5435 79.0152 57.1936 80.1664 57.1674L96.0191 54.5641C96.0608 54.5571 96.103 54.5535 96.1453 54.5534C96.2437 54.5529 96.3412 54.5715 96.4323 54.6082C96.5233 54.645 96.6061 54.699 96.676 54.7674C96.7458 54.8358 96.8013 54.9171 96.8392 55.0066C96.8771 55.0962 96.8967 55.1922 96.897 55.2893ZM59.538 65.4133L50.9002 62.8542L47.588 61.8709C47.4409 61.8215 47.3131 61.7281 47.2223 61.6038C47.1315 61.4794 47.0822 61.3302 47.0814 61.1769L46.9451 59.6708L46.7849 57.9041L46.5473 55.286C46.5483 55.1791 46.5728 55.0737 46.6191 54.977C46.6655 54.8804 46.7326 54.7948 46.8158 54.7263C46.899 54.6578 46.9963 54.6079 47.1009 54.5802C47.2056 54.5525 47.3151 54.5475 47.4219 54.5657L63.2746 57.169C64.4249 57.1944 64.5678 57.5443 64.5694 58.6579L63.2663 66.5154L59.538 65.4133Z" fill="white"/>
<path d="M203.979 119.673V34.5039H216.368V108.834H225.659V119.673H203.979Z" fill="white"/>
<path d="M284.503 65.4746H272.115V46.1179C272.115 45.2627 271.422 44.5694 270.566 44.5694C269.711 44.5694 269.018 45.2627 269.018 46.1179V108.446C269.018 109.515 269.884 110.382 270.953 110.382C272.022 110.382 272.889 109.515 272.889 108.446V90.2511H284.503V105.736C284.503 113.434 278.263 119.673 270.566 119.673C262.869 119.673 256.629 113.434 256.629 105.736V48.4407C256.629 40.7436 262.869 34.5039 270.566 34.5039C278.263 34.5039 284.503 40.7436 284.503 48.4407V65.4746Z" fill="white"/>
<path d="M286.052 119.673V34.5039H298.44V67.0231L303.86 34.5039H315.474L307.731 74.7658L315.474 119.673H303.86L298.44 86.3798V119.673H286.052Z" fill="white"/>
<path d="M329.411 34.5039H317.022V119.673H339.476V108.834H329.411V34.5039Z" fill="white"/>
<path d="M353.413 34.5039H341.799V119.673H353.413V34.5039Z" fill="white"/>
<path d="M388.255 34.5039V119.673H399.095V55.4091L404.514 119.673H420V34.5039H409.934V94.1225L404.514 34.5039H388.255Z" fill="white"/>
<path fill-rule="evenodd" clip-rule="evenodd" d="M231.853 34.5039H248.887L255.081 119.673H242.693V105.736H238.047V119.673H227.207L231.853 34.5039ZM240.37 49.9893L242.693 94.8968H238.047L240.37 49.9893Z" fill="white"/>
<path fill-rule="evenodd" clip-rule="evenodd" d="M357.284 48.4407V105.736C357.284 113.434 363.524 119.673 371.221 119.673C378.918 119.673 385.158 113.434 385.158 105.736V48.4407C385.158 40.7436 378.918 34.5039 371.221 34.5039C363.524 34.5039 357.284 40.7436 357.284 48.4407ZM371.221 110.382C372.076 110.382 372.77 109.689 372.77 108.834V46.1179C372.77 45.2627 372.076 44.5694 371.221 44.5694C370.366 44.5694 369.672 45.2627 369.672 46.1179V108.834C369.672 109.689 370.366 110.382 371.221 110.382Z" fill="white"/>
<path fill-rule="evenodd" clip-rule="evenodd" d="M172.234 34.5039L173.009 119.673H183.848C187.937 119.673 192.158 119.027 195.207 116.302C197.223 114.501 199.176 112.059 200.247 108.992C200.809 107.381 200.882 105.653 200.882 103.948V88.8316C200.882 85.6692 200.435 82.4743 198.771 79.7848C197.437 77.6278 195.675 75.4704 193.914 74.7658C195.354 74.2402 196.627 72.9812 197.655 71.5715C199.684 68.7881 200.108 65.2336 200.108 61.7891V49.3177C200.108 47.4509 200.03 45.5482 199.304 43.8287C198.237 41.3045 196.457 39.2649 194.604 37.7202C191.426 35.0717 187.148 34.5039 183.012 34.5039H172.234ZM184.623 70.1202V45.3436C186.961 46.2789 188.494 48.5435 188.494 51.0617V64.4021C188.494 66.9204 186.961 69.1849 184.623 70.1202ZM184.623 108.834V80.9599C186.961 81.8952 188.494 84.1598 188.494 86.678V103.115C188.494 105.634 186.961 107.898 184.623 108.834Z" fill="white"/>
</svg>
